<?xml version="1.0" encoding="utf-8"?>
<!-- Generator: Adobe Illustrator 26.0.2, SVG Export Plug-In . SVG Version: 6.00 Build 0)  -->
<svg version="1.1" id="Layer_1" xmlns="http://www.w3.org/2000/svg" xmlns:xlink="http://www.w3.org/1999/xlink" x="0px" y="0px"
	 viewBox="0 0 1000 1000" style="enable-background:new 0 0 1000 1000;" xml:space="preserve">
<style type="text/css">
	.st0{fill:#FF7BAC;}
	.st1{fill:#00FFFF;}
	.st2{fill:#2E3192;}
</style>
<path class="st0" d="M451.44,104.41c-8.89-1.25-13.55,14.59-6.69,22.72c32.15,38.09,72.71,106.49-50.61,106.49
	c-170.91,0-212.92,203.11-83.32,203.11c0,0-173.76,22.23-173.76,97.01S148.41,669,329.31,669s399.37,0,399.37,0
	S862,677.22,862,578.19s-67.65-140.46-114.65-140.46c0,0,48.42-14.64,48.42-78.82C795.77,229.57,612.34,127.05,451.44,104.41z"/>
<path class="st1" d="M298.25,260.22c0,0,120.1-22.56,216.95,44.13s123.91,133.38,232.15,133.38c0,0,61.7-17.21,46.52-101.57
	c-15.18-84.36-366.42-104.65-366.42-104.65S344.78,226.19,298.25,260.22z"/>
<path class="st1" d="M310.82,436.72c0,0,292.68,23.24,412.31,87.91s131.25,90.24,131.25,90.24s-9.23,69.14-191.3,54.12
	S367.66,429.52,234.21,453.84C234.21,453.84,278.78,433.69,310.82,436.72z"/>
<g>
	<g>
		<path class="st2" d="M213.82,850.05c-3.2-11.27-6.4-22.53-9.61-33.8c9.35,0,14.02,0,23.37,0c3.14,11.98,6.27,23.96,9.41,35.95
			c1.95,7.45,4.6,11.74,8.72,11.74c4.05,0,4.58-4.3,2.71-11.74c-2.08-8.31-3.12-12.46-5.2-20.77c-2.73-10.88-5.76-16.76-13.18-23.34
			c-5.43-4.81-8.17-7.22-13.7-12.03c-16.97-14.56-27.3-32.68-33.25-54.13c-1.69-5.96-2.54-8.94-4.23-14.89
			c-5.51-18.34-5.84-45.99,20.21-45.25c24.88,0.71,38.82,22.91,43.39,45.25c2.22,9.74,4.44,19.48,6.66,29.22
			c-9.89,0-14.83,0-24.72,0c-2.63-10.5-5.26-21-7.89-31.51c-1.83-7.3-4.63-11.46-9.38-11.46c-4.66,0-5.42,4.15-3.47,11.6
			c1.74,6.65,2.61,9.97,4.35,16.61c2.74,10.45,5.95,16.47,13.72,23.2c5.55,4.75,8.29,7.13,13.75,11.89
			c16.88,14.55,25.93,32.82,30.68,54.42c1.74,7.62,2.6,11.43,4.34,19.05c2.56,14.41,7.16,45.83-16.71,45.4
			C231.14,895.04,218.99,868.66,213.82,850.05z"/>
		<path class="st2" d="M242.05,684.07c16.29,0,32.59,0,48.88,0c1.97,11.03,3.93,22.05,5.9,33.08c-8.7,0-13.04,0-21.74,0
			c3.61,18.28,7.22,36.57,10.82,54.85c8.28,0,12.41,0,20.69,0c1.85,10.41,3.71,20.81,5.56,31.22c-8.04,0-12.06,0-20.1,0
			c3.74,18.95,7.48,37.9,11.22,56.85c7.6,0,11.41,0,19.01,0c1.97,11.03,3.93,22.05,5.9,33.08c-13.39,0-26.78,0-40.17,0
			C272.71,823.46,257.38,753.77,242.05,684.07z"/>
		<path class="st2" d="M300.13,684.07c11.63,0,23.27,0,34.9,0c9.66,36,18.97,72.08,27.92,108.27c3.93,17.31,7.79,34.64,11.6,51.99
			c0.12,0,0.19,0,0.31,0c-2.61-18.76-5.23-37.52-7.86-56.28c-4.31-34.66-8.62-69.31-12.94-103.97c8.44,0,12.66,0,21.11,0
			c7.45,69.7,14.89,139.39,22.33,209.09c-9.56,0-19.12,0-28.68,0c-8.79-36.23-17.95-72.36-27.45-108.41
			c-4.32-17.34-8.7-34.67-13.14-51.99c-0.17,0-0.26,0-0.43,0c3.22,18.81,6.43,37.61,9.63,56.42c5.28,34.66,10.55,69.31,15.83,103.97
			c-6.94,0-10.41,0-17.34,0C324,823.46,312.07,753.77,300.13,684.07z"/>
		<path class="st2" d="M386,684.07c12.06,0,24.11,0,36.17,0c25.62,0.4,32.34,24.82,32.71,46.54c1.55,38.67,3.1,77.33,4.65,116
			c0.85,16.62,0.18,47.2-23.48,46.54c-9.91,0-19.81,0-29.72,0C399.54,823.46,392.77,753.77,386,684.07z M431.49,862.66
			c4.44,0,5.99-3.29,5.45-11.89c-2.6-41.44-5.19-82.87-7.79-124.31c-0.54-8.59-2.77-11.89-7.86-11.89c-2.64,0-3.95,0-6.59,0
			c3.69,49.36,7.37,98.72,11.06,148.08C428.05,862.66,429.2,862.66,431.49,862.66z"/>
		<path class="st2" d="M467.25,850.05c-0.37-11.27-0.73-22.53-1.1-33.8c9.35,0,14.02,0,23.37,0c0.12,11.98,0.24,23.96,0.36,35.95
			c0.08,7.45,1.65,11.74,5.77,11.74c4.05,0,5.66-4.3,5.67-11.74c0.01-8.31,0.02-12.46,0.03-20.77c0.01-10.88-1.55-16.76-7.31-23.34
			c-4.22-4.81-6.36-7.22-10.67-12.03c-14.04-15.3-19.17-33.63-19.63-54.13c-0.19-5.96-0.29-8.94-0.48-14.89
			c-0.94-20.84,7-45.26,31.6-45.25c24.63,0,32.76,24.32,32,45.25c-0.23,9.74-0.46,19.48-0.69,29.22c-9.89,0-14.83,0-24.72,0
			c0.01-10.5,0.03-21,0.04-31.51c0.01-7.3-1.74-11.46-6.49-11.46c-4.66,0-6.47,4.15-6.39,11.6c0.07,6.64,0.1,9.97,0.17,16.61
			c0.11,10.45,1.81,16.47,7.88,23.2c4.35,4.75,6.5,7.13,10.75,11.89c14.07,15.41,17.71,33.96,16.98,54.42
			c-0.18,7.62-0.27,11.43-0.45,19.05c-0.26,17.42-5.65,45.4-28.14,45.4C473.3,895.45,467.66,867.53,467.25,850.05z"/>
		<path class="st2" d="M533.28,684.07c9.81,0,14.72,0,24.53,0c-0.38,58.48-1.12,116.96-2.2,175.43c0.15,0,0.23,0,0.38,0
			c5.51-58.51,11.38-116.99,17.6-175.43c12.6,0,25.19,0,37.79,0c-2.97,58.5-6.3,116.98-9.99,175.43c0.15,0,0.23,0,0.38,0
			c8.15-58.53,16.64-117.01,25.48-175.43c9.78,0,14.67,0,24.44,0c-13.51,69.56-26.28,139.26-38.31,209.09c-10.15,0-20.31,0-30.46,0
			c2.86-59.08,5.34-118.18,7.45-177.3c-0.32,0-0.47,0-0.79,0c-7.21,59.06-14.05,118.15-20.52,177.3c-10.15,0-20.31,0-30.46,0
			C537.6,823.44,535.82,753.75,533.28,684.07z"/>
		<path class="st2" d="M659.28,684.07c16.29,0,32.59,0,48.88,0c-1.96,11.03-3.91,22.05-5.87,33.08c-8.69,0-13.04,0-21.74,0
			c-2.9,18.28-5.79,36.57-8.69,54.85c8.28,0,12.41,0,20.69,0c-1.85,10.41-3.69,20.81-5.54,31.22c-8.04,0-12.06,0-20.1,0
			c-3,18.95-6,37.9-9.01,56.85c7.6,0,11.41,0,19.01,0c-1.96,11.03-3.91,22.05-5.87,33.08c-13.39,0-26.78,0-40.17,0
			C640.35,823.46,649.81,753.77,659.28,684.07z"/>
		<path class="st2" d="M717.36,684.07c16.29,0,32.59,0,48.88,0c-2.5,11.03-5.01,22.05-7.51,33.08c-8.7,0-13.04,0-21.74,0
			c-3.8,18.28-7.6,36.57-11.4,54.85c8.28,0,12.41,0,20.69,0c-2.36,10.41-4.72,20.81-7.09,31.22c-8.04,0-12.06,0-20.1,0
			c-3.94,18.95-7.88,37.9-11.82,56.85c7.6,0,11.41,0,19.01,0c-2.5,11.03-5.01,22.05-7.51,33.08c-13.39,0-26.78,0-40.17,0
			C691.53,823.46,704.44,753.77,717.36,684.07z"/>
		<path class="st2" d="M781.07,718.3c-6.79,0-10.19,0-16.99,0c2.65-11.41,5.29-22.82,7.94-34.23c20.44,0,40.89,0,61.33,0
			c-3.24,11.41-6.49,22.82-9.73,34.23c-6.76,0-10.14,0-16.9,0c-15.7,58.29-31.4,116.57-47.1,174.86c-8.69,0-13.03,0-21.72,0
			C752.29,834.87,766.68,776.59,781.07,718.3z"/>
	</g>
</g>
</svg>
